<svg xmlns="http://www.w3.org/2000/svg" width="103" height="62" viewBox="0 0 103 62">
    <g fill="#D5D5E2" fill-rule="evenodd">
        <path d="M7.142 30.01c0 .685-.555 1.24-1.24 1.24-.683 0-1.238-.555-1.238-1.24 0-.684.555-1.238 1.239-1.238s1.239.554 1.239 1.239M102.186 42.085c0 .685-.555 1.239-1.239 1.239s-1.24-.554-1.24-1.239.556-1.239 1.24-1.239c.684 0 1.24.554 1.24 1.239M2.478 30.01c0 .685-.555 1.24-1.239 1.24-.685 0-1.24-.555-1.24-1.24 0-.684.555-1.238 1.24-1.238.684 0 1.24.554 1.24 1.239M53.84 2.2c-13.715 0-24.874 11.158-24.874 24.874 0 13.717 11.159 24.876 24.875 24.876s24.875-11.159 24.875-24.876C78.716 13.358 67.556 2.2 53.84 2.2m0 51.95c-14.93 0-27.075-12.145-27.075-27.075C26.766 12.145 38.912 0 53.84 0 68.77 0 80.916 12.145 80.916 27.074c0 14.93-12.146 27.075-27.075 27.075"/>
        <path d="M53.862 48.445c-8.77.001-17.01-5.44-20.136-14.158-1.757-4.9-1.666-10.264.256-15.103.224-.565.864-.84 1.429-.616.564.225.84.864.616 1.43-1.725 4.34-1.806 9.15-.23 13.547 3.568 9.95 14.564 15.14 24.515 11.574 9.949-3.569 15.14-14.567 11.573-24.516C68.318 10.654 57.322 5.463 47.37 9.03c-.571.206-1.201-.092-1.406-.664-.206-.57.092-1.2.664-1.406 11.09-3.977 23.35 1.81 27.328 12.901 3.977 11.091-1.81 23.351-12.902 27.328-2.374.852-4.803 1.256-7.192 1.256"/>
        <path d="M37.027 16.855c-.211 0-.425-.061-.613-.188-.504-.339-.638-1.023-.3-1.527.8-1.188 1.724-2.3 2.744-3.303 1.019-1.002 2.146-1.905 3.348-2.687.509-.33 1.19-.186 1.52.323.332.51.188 1.192-.322 1.523-1.08.7-2.09 1.511-3.003 2.41-.916.9-1.743 1.896-2.46 2.963-.213.316-.56.486-.914.486M81.32 61.36c-1.247 0-2.493-.476-3.442-1.425L67.433 49.493c-.43-.43-.43-1.127 0-1.556.43-.43 1.126-.429 1.556 0L79.433 58.38c1.008 1.01 2.766 1.007 3.774 0 .504-.504.782-1.174.782-1.887 0-.713-.278-1.383-.782-1.888L73.32 44.69c-.43-.43-.43-1.126 0-1.556.433-.427 1.129-.426 1.557.003l9.887 9.915c1.897 1.897 1.897 4.987-.001 6.884-.95.95-2.196 1.424-3.443 1.424M62.99 37.35H41.3c-.609 0-1.102-.491-1.102-1.1 0-.606.493-1.098 1.101-1.098h21.69c.607 0 1.1.492 1.1 1.099 0 .608-.493 1.1-1.1 1.1M44.587 23.689c-.676 0-1.227.55-1.227 1.227v5.159c0 .675.551 1.227 1.227 1.227.677 0 1.227-.552 1.227-1.227v-5.16c0-.675-.55-1.226-1.227-1.226m0 9.813c-1.89 0-3.427-1.539-3.427-3.428v-5.159c0-1.89 1.537-3.425 3.427-3.425 1.89 0 3.427 1.536 3.427 3.426v5.159c0 1.889-1.537 3.427-3.427 3.427M52.514 19.406c-.677 0-1.227.551-1.227 1.228v9.44c0 .677.55 1.228 1.227 1.228.676 0 1.227-.55 1.227-1.228v-9.44c0-.677-.55-1.228-1.227-1.228m0 14.095c-1.89 0-3.427-1.537-3.427-3.427v-9.44c0-1.89 1.537-3.427 3.427-3.427 1.89 0 3.427 1.537 3.427 3.427v9.44c0 1.89-1.537 3.427-3.427 3.427M60.44 14.712c-.676 0-1.227.55-1.227 1.228v14.134c0 .677.551 1.228 1.227 1.228.677 0 1.227-.551 1.227-1.228V15.94c0-.677-.55-1.228-1.227-1.228m0 18.789c-1.89 0-3.427-1.537-3.427-3.427V15.94c0-1.89 1.537-3.427 3.427-3.427 1.89 0 3.427 1.537 3.427 3.427v14.134c0 1.89-1.537 3.427-3.427 3.427"/>
        <path d="M65.057 35.282c-.534 0-.968.435-.968.97 0 .533.434.967.968.967s.968-.434.968-.968-.434-.969-.968-.969m0 4.137c-1.747 0-3.168-1.42-3.168-3.168 0-1.747 1.421-3.168 3.168-3.168s3.168 1.421 3.168 3.168-1.42 3.168-3.168 3.168M21.406 31.11h-9.682c-.607 0-1.1-.492-1.1-1.1 0-.607.493-1.099 1.1-1.099h9.682c.607 0 1.1.492 1.1 1.1 0 .607-.493 1.1-1.1 1.1M95.97 43.185H81.407c-.607 0-1.1-.492-1.1-1.1 0-.607.493-1.1 1.1-1.1H95.97c.607 0 1.1.493 1.1 1.1 0 .608-.493 1.1-1.1 1.1M23.862 37.35H4.663c-.607 0-1.1-.491-1.1-1.1 0-.606.493-1.098 1.1-1.098h19.2c.606 0 1.1.492 1.1 1.099 0 .608-.494 1.1-1.1 1.1"/>
    </g>
</svg>
